<svg width="64" height="50" viewBox="0 0 64 50" fill="none" xmlns="http://www.w3.org/2000/svg">
<path d="M14 50V24.3264L6.61885 17.0422L0 13V45.4693C0 47.9762 1.88288 50 4.2001 50H14Z" fill="#4285F4"/>
<path d="M50 50H59.7999C62.1241 50 64 47.9686 64 45.4693V13L56.5031 17.6299L50 24.3262V50Z" fill="#34A853"/>
<path d="M14.0682 24.4999L13 14.5362L14.0682 5L31.9367 18.5001L49.8051 5L51 14.0214L49.8051 24.4999L31.9367 38L14.0682 24.4999Z" fill="#EA4335"/>
<path d="M50 4.51031V24L64 12.756V6.75906C64 1.19709 58.071 -1.97363 53.9203 1.362L50 4.51031Z" fill="#FBBC04"/>
<path d="M0 12.756L6.43886 17.9276L14 24V4.5104L10.0798 1.36211C5.92176 -1.97376 0 1.1972 0 6.75888V12.7558V12.756Z" fill="#C5221F"/>
</svg>
