<svg width="50" height="50" viewBox="0 0 50 50" fill="none" xmlns="http://www.w3.org/2000/svg">
<path d="M25 0C18.3711 0 12.0078 2.63555 7.32422 7.32227C2.63579 12.0108 0.00129871 18.3695 0 25C0 31.6277 2.63672 37.991 7.32422 42.6777C12.0078 47.3645 18.3711 50 25 50C31.6289 50 37.9922 47.3645 42.6758 42.6777C47.3633 37.991 50 31.6277 50 25C50 18.3723 47.3633 12.009 42.6758 7.32227C37.9922 2.63555 31.6289 0 25 0Z" fill="url(#paint0_linear_4_135)"/>
<path d="M10.9246 24.9015C18.4422 21.6559 23.4539 19.5161 25.9598 18.4823C33.1229 15.5302 34.6095 15.0175 35.5804 15.0002C35.7939 14.9968 36.2693 15.0491 36.5795 15.2976C36.8374 15.5073 36.9099 15.7908 36.9461 15.9898C36.9784 16.1887 37.0227 16.6419 36.9864 16.9957C36.5997 21.0366 34.9197 30.8427 34.0656 35.3688C33.707 37.2838 32.994 37.9259 32.305 37.9886C30.8064 38.1252 29.6703 37.0079 28.2199 36.066C25.9517 34.5913 24.6706 33.6737 22.4669 32.2351C19.9207 30.5724 21.5725 29.6584 23.0228 28.165C23.4015 27.774 30.0006 21.8264 30.1255 21.287C30.1416 21.2195 30.1577 20.9679 30.0046 20.8354C29.8556 20.7024 29.634 20.7479 29.4728 20.7839C29.2432 20.835 25.6214 23.21 18.5953 27.9086C17.5679 28.609 16.6373 28.9504 15.7993 28.9324C14.8808 28.9129 13.1081 28.4165 11.7908 27.9925C10.1793 27.4722 8.89409 27.1971 9.0069 26.3134C9.0633 25.8534 9.70387 25.3826 10.9246 24.9015Z" fill="white"/>
<defs>
<linearGradient id="paint0_linear_4_135" x1="2500" y1="0" x2="2500" y2="5000" gradientUnits="userSpaceOnUse">
<stop stop-color="#2AABEE"/>
<stop offset="1" stop-color="#229ED9"/>
</linearGradient>
</defs>
</svg>
