<svg width="50" height="50" viewBox="0 0 50 50" fill="none" xmlns="http://www.w3.org/2000/svg">
<path d="M49.975 11.3681C49.9542 10.2955 49.8682 9.22509 49.7175 8.16291C49.5379 7.21811 49.2327 6.3016 48.81 5.43777C47.8846 3.61093 46.4012 2.12654 44.575 1.20006C43.7168 0.77932 42.8062 0.474954 41.8675 0.295015C40.7972 0.141213 39.7185 0.0535428 38.6375 0.0325017C38.18 0.0150008 37.5875 0.00750043 37.3125 0.00750043L12.6925 0C12.4175 0 11.825 0.00750035 11.3675 0.0250012C10.2949 0.0456688 9.22461 0.131666 8.1625 0.282514C7.21775 0.462122 6.30129 0.767346 5.4375 1.19006C3.61086 2.11561 2.12658 3.59908 1.2 5.42527C0.779392 6.2836 0.475046 7.19416 0.295 8.13291C0.140508 9.20317 0.0520077 10.2819 0.0300002 11.3631C0.0150002 11.8206 0.00500023 12.4131 0.00500023 12.6881L0 37.3094C0 37.5844 0.00749998 38.1769 0.025 38.6344C0.0456665 39.7071 0.131659 40.7774 0.2825 41.8396C0.462128 42.7844 0.767336 43.7009 1.19 44.5647C2.1155 46.3915 3.5989 47.8758 5.425 48.8024C6.28331 49.223 7.19382 49.5274 8.1325 49.7075C9.20275 49.8613 10.2815 49.949 11.3625 49.97C11.82 49.9875 12.4125 49.995 12.6875 49.995L37.3075 50C37.5825 50 38.175 49.9925 38.6325 49.975C39.7051 49.9543 40.7754 49.8683 41.8375 49.7175C42.7822 49.5378 43.6987 49.2325 44.5625 48.8099C46.3901 47.8848 47.8753 46.4013 48.8025 44.5747C49.2232 43.7164 49.5275 42.8059 49.7075 41.8671C49.8621 40.7968 49.9506 39.7181 49.9725 38.6369C49.9875 38.1794 49.9975 37.5869 49.9975 37.3119L50 12.6931C50 12.4181 49.9925 11.8256 49.975 11.3681ZM25.5425 42.3946H25.535C22.5592 42.394 19.6309 41.648 17.0175 40.2245L7.5675 42.7021L10.0975 33.4692C8.13863 30.0698 7.35593 26.1191 7.87075 22.2296C8.38556 18.3401 10.1691 14.7291 12.9449 11.9564C15.7207 9.18379 19.3337 7.40442 23.2236 6.89421C27.1135 6.38399 31.0631 7.17143 34.46 9.13444C37.8569 11.0974 40.5113 14.1264 42.0116 17.7515C43.512 21.3767 43.7745 25.3957 42.7585 29.1852C41.7424 32.9748 39.5046 36.3233 36.392 38.7116C33.2793 41.0998 29.4657 42.3944 25.5425 42.3946Z" fill="#60D669"/>
<path d="M25.5052 9.00253C22.9144 9.00175 20.3708 9.719 18.1388 11.0797C15.9068 12.4404 14.0679 14.3948 12.8134 16.7398C11.5589 19.0847 10.9346 21.7346 11.0054 24.4137C11.0762 27.0928 11.8395 29.7034 13.216 31.9739L13.5609 32.5409L12.0954 38.0736L17.5831 36.5854L18.1116 36.9094C20.3455 38.2781 22.8942 39.0002 25.4905 39H25.4978C29.3434 39.0007 33.0317 37.421 35.7514 34.6084C38.4711 31.7958 39.9993 27.9808 40 24.0025C40.0006 20.0243 38.4736 16.2087 35.7549 13.3952C33.0361 10.5817 29.3483 9.00067 25.5027 9L25.5052 9.00253ZM34.0291 30.4401C33.7084 30.988 33.2816 31.4613 32.7755 31.8303C32.2694 32.1992 31.6949 32.4558 31.0883 32.5839C30.1724 32.7464 29.2325 32.6857 28.3432 32.4067C27.4999 32.1349 26.671 31.8172 25.8599 31.4551C22.85 29.8924 20.2844 27.5471 18.415 24.6492C17.3952 23.3077 16.7761 21.6874 16.6338 19.9871C16.6221 19.2853 16.7518 18.5886 17.0146 17.9415C17.2775 17.2944 17.6677 16.711 18.1605 16.2285C18.3062 16.0567 18.4846 15.9178 18.6846 15.8207C18.8845 15.7236 19.1018 15.6703 19.3226 15.6641C19.6113 15.6641 19.9025 15.6641 20.1569 15.6793C20.4261 15.692 20.7833 15.573 21.1356 16.4538C21.5026 17.3548 22.3735 19.5745 22.4812 19.7998C22.5503 19.9179 22.5898 20.0519 22.5962 20.1898C22.6027 20.3277 22.5757 20.4651 22.5179 20.5895C22.4081 20.8602 22.2615 21.1134 22.0824 21.3412C21.8622 21.6044 21.6249 21.9284 21.4292 22.1309C21.209 22.3561 20.9839 22.5991 21.2359 23.0496C21.8904 24.2089 22.7075 25.2615 23.6604 26.1729C24.6945 27.1239 25.8809 27.881 27.1664 28.4103C27.6019 28.6381 27.8563 28.5976 28.1108 28.2964C28.3652 27.9952 29.1995 26.9803 29.4907 26.5297C29.7818 26.0792 30.0705 26.1552 30.4693 26.3045C30.8681 26.4538 33.0138 27.5447 33.4493 27.7725C33.8847 28.0003 34.1759 28.1091 34.2835 28.2964C34.4029 29.0213 34.3144 29.7666 34.0291 30.4401Z" fill="#60D669"/>
</svg>
