<svg width="28" height="14" viewBox="0 0 28 14" fill="none" xmlns="http://www.w3.org/2000/svg">
<path d="M6.76087 7.73169C5.18473 7.73169 3.90869 9.00862 3.90869 10.5848C3.90869 12.1609 5.18563 13.4378 6.76087 13.4378C8.33522 13.4378 9.61304 12.1609 9.61304 10.5848C9.61304 9.00862 8.33522 7.73169 6.76087 7.73169ZM6.76087 11.4467C6.28714 11.4467 5.89889 11.0603 5.89889 10.5856C5.89889 10.111 6.28714 9.72456 6.76087 9.72456C7.23371 9.72456 7.62106 10.111 7.62106 10.5856C7.62106 11.0603 7.2346 11.4467 6.76087 11.4467Z" fill="#3388DE"/>
<path d="M0.471126 8.24753L0.937732 4.45235C1.02945 3.72394 1.66614 3.18966 2.40078 3.22973L3.42303 3.28672L6.59667 0.427425C6.90299 0.15227 7.29747 0.00089083 7.70886 0.00089083L14.1568 0C15.6038 0 17.0072 0.494211 18.1354 1.40071L21.7329 4.29117L26.5708 5.50043C27.1923 5.65537 27.6287 6.21459 27.6287 6.85484V8.24931C27.8335 8.24842 28 8.41405 28 8.61886V10.463C28 10.7257 27.7872 10.9385 27.5245 10.9385H24.7934C24.805 10.8201 24.829 10.707 24.829 10.5859C24.829 8.60283 23.2226 6.9982 21.2404 6.9982C19.2583 6.9982 17.6527 8.60283 17.6527 10.5859C17.6527 10.7079 17.6777 10.821 17.6892 10.9385H10.1265C10.1372 10.8201 10.1612 10.707 10.1612 10.5859C10.1612 8.60283 8.55481 6.9982 6.57352 6.9982C4.59044 6.9982 2.9867 8.60283 2.9867 10.5859C2.9867 10.7079 3.00986 10.821 3.02232 10.9385H0.474689C0.212 10.9385 6.77214e-05 10.7257 6.77214e-05 10.463V8.72393C-0.00438463 8.46214 0.208437 8.24753 0.471126 8.24753ZM10.041 3.58414L19.0365 4.03917L17.3144 2.65449C16.3785 1.90204 15.2155 1.49243 14.0143 1.49243H10.041V3.58414ZM8.5468 3.50845V1.49332H7.96176C7.75873 1.49332 7.56372 1.56812 7.41323 1.70436L5.57708 3.35707L8.5468 3.50845Z" fill="#3388DE"/>
<path d="M21.4279 7.73169C19.8517 7.73169 18.5757 9.00862 18.5757 10.5848C18.5757 12.1609 19.8526 13.4378 21.4279 13.4378C23.0031 13.4378 24.28 12.1609 24.28 10.5848C24.28 9.00862 23.0031 7.73169 21.4279 7.73169ZM21.4279 11.4467C20.9532 11.4467 20.5668 11.0603 20.5668 10.5856C20.5668 10.111 20.9532 9.72456 21.4279 9.72456C21.9007 9.72456 22.2889 10.111 22.2889 10.5856C22.2889 11.0603 21.9016 11.4467 21.4279 11.4467Z" fill="#3388DE"/>
</svg>
