<svg width="19" height="20" viewBox="0 0 19 20" fill="none" xmlns="http://www.w3.org/2000/svg">
<path d="M9.5 19.5C14.7467 19.5 19 15.2467 19 10C19 4.75329 14.7467 0.5 9.5 0.5C4.25329 0.5 0 4.75329 0 10C0 15.2467 4.25329 19.5 9.5 19.5Z" fill="#3388DE"/>
<path d="M9.5 17.125C5.57125 17.125 2.375 13.9287 2.375 9.99998C2.375 6.07124 5.57129 2.875 9.5 2.875C13.4287 2.875 16.625 6.07128 16.625 9.99998C16.625 13.9287 13.4288 17.125 9.5 17.125Z" fill="white"/>
<path d="M9.49999 2.5791C9.39081 2.5791 9.28231 2.58196 9.17432 2.58686V4.48302C9.17432 4.66289 9.32008 4.8087 9.49999 4.8087C9.6799 4.8087 9.82567 4.66289 9.82567 4.48302V2.58689C9.71775 2.58196 9.60921 2.5791 9.49999 2.5791Z" fill="#3388DE"/>
<path d="M14.2905 4.43945L12.9518 5.778C12.8247 5.90518 12.8247 6.11144 12.9518 6.23857C13.0154 6.30218 13.0988 6.33398 13.1822 6.33398C13.2655 6.33398 13.3489 6.30218 13.4125 6.23857L14.7511 4.90002C14.6046 4.7396 14.4509 4.58593 14.2905 4.43945Z" fill="#3388DE"/>
<path d="M16.6041 9.36499H14.708C14.5281 9.36499 14.3823 9.51079 14.3823 9.69067C14.3823 9.87054 14.5281 10.0163 14.708 10.0163H16.6041C16.609 9.90835 16.6119 9.79984 16.6119 9.69067C16.6119 9.58153 16.6091 9.47298 16.6041 9.36499Z" fill="#3388DE"/>
<path d="M14.752 14.4815L13.4134 13.143C13.2862 13.0158 13.08 13.0158 12.9528 13.143C12.8256 13.2702 12.8256 13.4764 12.9528 13.6036L14.2914 14.9421C14.4518 14.7957 14.6055 14.642 14.752 14.4815Z" fill="#3388DE"/>
<path d="M9.49999 14.5728C9.32008 14.5728 9.17432 14.7186 9.17432 14.8984V16.7946C9.28231 16.7995 9.39081 16.8023 9.49999 16.8023C9.60917 16.8023 9.71768 16.7995 9.82567 16.7946V14.8984C9.8257 14.7185 9.6799 14.5728 9.49999 14.5728Z" fill="#3388DE"/>
<path d="M5.58757 13.143L4.24902 14.4815C4.3955 14.642 4.5492 14.7957 4.70963 14.9421L6.04826 13.6036C6.17543 13.4764 6.17543 13.2702 6.04826 13.143C5.92101 13.0158 5.71482 13.0158 5.58757 13.143Z" fill="#3388DE"/>
<path d="M4.29207 9.36499H2.39594C2.39104 9.47298 2.38818 9.58149 2.38818 9.69067C2.38818 9.79984 2.39104 9.90835 2.39594 10.0163H4.29207C4.47197 10.0163 4.61774 9.87054 4.61774 9.69067C4.61774 9.51079 4.47194 9.36499 4.29207 9.36499Z" fill="#3388DE"/>
<path d="M4.24902 4.90002L5.58757 6.23857C5.65118 6.30214 5.73457 6.33398 5.81792 6.33398C5.90126 6.33398 5.98461 6.30218 6.04826 6.23857C6.17543 6.1114 6.17543 5.90514 6.04826 5.778L4.70963 4.43945C4.54917 4.58593 4.3955 4.7396 4.24902 4.90002Z" fill="#3388DE"/>
<path d="M11.2604 12.1023C11.0937 12.1023 10.9269 12.0387 10.7998 11.9115L9.03945 10.1511C8.91729 10.029 8.84863 9.8633 8.84863 9.69055V6.41161C8.84863 6.05186 9.14028 5.76025 9.49998 5.76025C9.85973 5.76025 10.1513 6.0519 10.1513 6.41161V9.42073L11.7209 10.9903C11.9753 11.2447 11.9753 11.6571 11.7209 11.9115C11.5937 12.0387 11.427 12.1023 11.2604 12.1023Z" fill="#3388DE"/>
</svg>
