<svg width="14" height="16" viewBox="0 0 14 16" fill="none" xmlns="http://www.w3.org/2000/svg">
<path d="M12.3911 0.476832C11.5811 0.160033 10.732 0 9.86324 0C6.7671 0 4.10859 2.0543 2.99816 4.96754H1.11043C0.496428 4.96754 0 5.46397 0 6.07798C0 6.69198 0.496428 7.18841 1.11043 7.18841H2.48214C2.45601 7.45622 2.45601 8.54705 2.48214 8.81159H1.11043C0.496428 8.81159 0 9.30802 0 9.92202C0 10.536 0.496428 11.0325 1.11043 11.0325H3.00143C4.11186 13.9424 6.77036 16 9.8665 16C10.5752 16 11.2741 15.8922 11.9502 15.6799C12.5348 15.497 12.8614 14.87 12.6752 14.2854C12.4923 13.7008 11.8653 13.3742 11.2807 13.5603C10.8234 13.704 10.3466 13.7759 9.86324 13.7759C7.99837 13.7759 6.35885 12.6785 5.44111 11.0325H10.1506C10.7646 11.0325 11.2611 10.536 11.2611 9.92202C11.2611 9.30802 10.7646 8.81159 10.1506 8.81159H4.71933C4.68667 8.54705 4.68667 7.45295 4.71933 7.18841H10.1539C10.7679 7.18841 11.2643 6.69198 11.2643 6.07798C11.2643 5.46397 10.7679 4.96754 10.1539 4.96754H5.44438C6.36212 3.32149 7.99837 2.22413 9.8665 2.22413C10.4576 2.22413 11.0357 2.3319 11.5844 2.54746C12.156 2.76954 12.7993 2.48867 13.0247 1.91713C13.2468 1.34231 12.9659 0.698918 12.3911 0.476832Z" fill="#3388DE"/>
</svg>
