<svg width="20" height="40" viewBox="0 0 20 40" fill="none" xmlns="http://www.w3.org/2000/svg">
<path fill-rule="evenodd" clip-rule="evenodd" d="M18.9886 22.9328C19.6362 22.1479 20 21.0838 20 19.9745C20 18.8651 19.6362 17.8011 18.9886 17.0162L5.94905 1.22554C5.30031 0.440578 4.42055 -0.000261577 3.50331 1.16444e-07C3.04914 0.000129694 2.59943 0.108548 2.17987 0.319066C1.76032 0.529583 1.37912 0.838077 1.05805 1.22693C0.736976 1.61579 0.482316 2.07739 0.308611 2.58539C0.134906 3.09338 0.0455553 3.63782 0.0456623 4.18762C0.0457693 4.73742 0.135333 5.2818 0.309236 5.7897C0.483139 6.29759 0.737976 6.75905 1.0592 7.14772L11.6527 19.9745L1.05689 32.8012C0.726456 33.1872 0.462827 33.649 0.281392 34.1596C0.0999568 34.6703 0.00435107 35.2195 0.000145972 35.7754C-0.00405912 36.3312 0.0832243 36.8825 0.256904 37.3971C0.430583 37.9117 0.687178 38.3792 1.01172 38.7725C1.33626 39.1657 1.72225 39.4768 2.14716 39.6875C2.57208 39.8982 3.0274 40.0044 3.48658 39.9999C3.94575 39.9953 4.39957 39.8801 4.82157 39.6609C5.24356 39.4418 5.62528 39.1231 5.94444 38.7234L18.9933 22.9328H18.9886Z" fill="#3388DE"/>
</svg>
