<svg width="20" height="40" viewBox="0 0 20 40" fill="none" xmlns="http://www.w3.org/2000/svg">
<path fill-rule="evenodd" clip-rule="evenodd" d="M1.01135 22.9328C0.363751 22.1479 0 21.0838 0 19.9745C0 18.8651 0.363751 17.8011 1.01135 17.0162L14.051 1.22554C14.6997 0.440578 15.5795 -0.000261577 16.4967 1.16444e-07C16.9509 0.000129694 17.4006 0.108548 17.8201 0.319066C18.2397 0.529583 18.6209 0.838077 18.942 1.22693C19.263 1.61579 19.5177 2.07739 19.6914 2.58539C19.8651 3.09338 19.9544 3.63782 19.9543 4.18762C19.9542 4.73742 19.8647 5.2818 19.6908 5.7897C19.5169 6.29759 19.262 6.75905 18.9408 7.14772L8.34728 19.9745L18.9431 32.8012C19.2735 33.1872 19.5372 33.649 19.7186 34.1596C19.9 34.6703 19.9956 35.2195 19.9999 35.7754C20.0041 36.3312 19.9168 36.8825 19.7431 37.3971C19.5694 37.9117 19.3128 38.3792 18.9883 38.7725C18.6637 39.1657 18.2777 39.4768 17.8528 39.6875C17.4279 39.8982 16.9726 40.0044 16.5134 39.9999C16.0543 39.9953 15.6004 39.8801 15.1784 39.6609C14.7564 39.4418 14.3747 39.1231 14.0556 38.7234L1.00674 22.9328H1.01135Z" fill="#3388DE"/>
</svg>
