<svg width="17" height="17" viewBox="0 0 17 17" fill="none" xmlns="http://www.w3.org/2000/svg">
<path d="M6.71472 15.9123L5.82331 12.2082L4.42244 9.27955C4.24002 8.89827 4.41937 8.44946 4.82295 8.27714C5.22646 8.1048 5.70162 8.27424 5.88394 8.65555L7.31812 11.6537C7.34024 11.7 7.35741 11.7482 7.36935 11.7978L8.27869 15.5763C8.37686 15.9843 8.10639 16.3903 7.67449 16.483C7.24098 16.5762 6.81253 16.3188 6.71472 15.9123Z" fill="#3388DE"/>
<path d="M2.14805 16.453C1.73366 16.3053 1.52444 15.8682 1.6807 15.4767L2.95868 12.2756L2.47995 9.39453C2.41125 8.98118 2.71027 8.59347 3.14779 8.52856C3.58494 8.46369 3.99573 8.74612 4.0644 9.1595L4.57601 12.2382C4.59754 12.3677 4.58312 12.5004 4.53413 12.623L3.18136 16.0115C3.02464 16.4041 2.56132 16.6003 2.14805 16.453Z" fill="#3388DE"/>
<path d="M8.01547 8.27422C7.91124 8.29344 7.80079 8.28966 7.69207 8.25878L5.0329 7.50338C4.84234 7.44926 4.68671 7.31847 4.60756 7.14594L3.59247 4.93242C3.44415 4.60898 3.6014 4.2332 3.94379 4.09308C4.28621 3.95289 4.68387 4.10151 4.83222 4.42498L5.72253 6.36638L8.08113 7.03638C8.43843 7.13791 8.64096 7.49382 8.53353 7.83138C8.4588 8.06619 8.25369 8.23029 8.01547 8.27422Z" fill="#3388DE"/>
<path d="M7.69207 8.25878L5.0329 7.50338C4.84234 7.44926 4.68671 7.31847 4.60756 7.14594L3.59247 4.93242C3.44415 4.60898 3.6014 4.2332 3.94379 4.09308C4.28621 3.95289 4.68387 4.10151 4.83222 4.42498L5.72253 6.36638L8.08113 7.03638L7.69207 8.25878Z" fill="#3388DE"/>
<path d="M15.9067 9.29745L13.6376 7.51867C13.6072 7.49483 13.5791 7.46842 13.5535 7.43986L11.3343 4.95246C11.0968 4.68633 11.1327 4.28874 11.4144 4.0644C11.6961 3.84006 12.117 3.87393 12.3544 4.14009L14.5353 6.58449L16.7586 8.32739C17.0421 8.54967 17.0813 8.94698 16.8461 9.21485C16.6101 9.48357 16.1895 9.51914 15.9067 9.29745Z" fill="#3388DE"/>
<path d="M13.3229 3.86795L11.5709 3.72564C11.0292 3.68167 10.5523 4.06085 10.5058 4.57263L10.0885 9.15822C10.0783 9.27022 10.0822 9.38297 10.1 9.49412L10.5545 12.3264L9.29191 15.4891C9.1375 15.8759 9.3442 16.3077 9.7536 16.4536C10.1612 16.5988 10.6194 16.4059 10.7745 16.0174L12.111 12.6697C12.1594 12.5485 12.1736 12.4175 12.1524 12.2895L11.7319 9.266L13.818 9.44703L14.2197 4.87148C14.2645 4.36064 13.8634 3.91185 13.3229 3.86795Z" fill="#3388DE"/>
<path d="M14.3049 15.9192L13.4243 12.2597L12.0402 9.36627C11.86 8.98956 12.0372 8.54618 12.4359 8.37593C12.8346 8.20568 13.304 8.37306 13.4842 8.74978L14.9011 11.7119C14.923 11.7576 14.9399 11.8053 14.9517 11.8542L15.8501 15.5874C15.9471 15.9905 15.6798 16.3915 15.2531 16.4832C14.8254 16.575 14.4017 16.3213 14.3049 15.9192Z" fill="#3388DE"/>
<path d="M13.8177 9.44697L10.0913 9.12363L10.5054 4.57261C10.552 4.06083 11.0289 3.68164 11.5706 3.72564L13.3226 3.86795C13.8631 3.91183 14.2642 4.36064 14.2193 4.87142L13.8177 9.44697Z" fill="#3388DE"/>
<path d="M12.8664 3.32674C13.6713 3.32674 14.3237 2.71035 14.3237 1.94999C14.3237 1.18963 13.6713 0.573242 12.8664 0.573242C12.0616 0.573242 11.4092 1.18963 11.4092 1.94999C11.4092 2.71035 12.0616 3.32674 12.8664 3.32674Z" fill="#3388DE"/>
<path d="M6.2344 4.29607C6.15909 3.9071 5.82524 3.62598 5.4373 3.62598C4.93763 3.62598 4.58625 3.62598 4.03167 3.62598C3.64288 3.62598 3.31005 3.90632 3.23457 4.29607L1.99205 10.7114C1.94951 10.931 2.11523 11.1334 2.33096 11.1334C3.38104 11.1334 6.0886 11.1334 7.13795 11.1334C7.35573 11.1334 7.51917 10.9298 7.47686 10.7114L6.2344 4.29607Z" fill="#3388DE"/>
<path d="M4.73419 3.13657C5.50427 3.13657 6.12854 2.54679 6.12854 1.81926C6.12854 1.09173 5.50427 0.501953 4.73419 0.501953C3.96412 0.501953 3.33984 1.09173 3.33984 1.81926C3.33984 2.54679 3.96412 3.13657 4.73419 3.13657Z" fill="#3388DE"/>
<path d="M7.57548 8.20272C7.56688 8.13453 7.56992 8.06391 7.58633 7.99307L8.15599 5.52876C8.20376 5.32217 8.35773 5.15198 8.56629 5.0752L11.5988 3.95901C11.9427 3.83242 12.3301 3.99323 12.4641 4.31811C12.5983 4.64292 12.4279 5.00901 12.084 5.13557L9.38532 6.12888L8.8921 8.2625C8.81334 8.60316 8.45723 8.819 8.09665 8.74459C7.81099 8.68566 7.60826 8.46228 7.57548 8.20272Z" fill="#3388DE"/>
<path d="M12.4638 4.31835C12.3298 3.99348 11.9424 3.83266 11.5985 3.95926L10.2974 4.43813L10.7748 5.61757L12.0836 5.13582C12.4276 5.00925 12.598 4.64322 12.4638 4.31835Z" fill="#3388DE"/>
<path d="M1.30565 10.0881C0.957165 10.0706 0.689712 9.78954 0.708224 9.46034L0.863019 6.70973C0.870566 6.57531 0.926042 6.44722 1.02036 6.3463L2.89501 4.34069C3.12596 4.09356 3.52526 4.07016 3.78684 4.28835C4.04842 4.50657 4.07319 4.88381 3.84225 5.13091L2.11328 6.98072L1.97019 9.52375C1.95162 9.8529 1.65404 10.1056 1.30565 10.0881Z" fill="#3388DE"/>
</svg>
