<svg width="16" height="17" viewBox="0 0 16 17" fill="none" xmlns="http://www.w3.org/2000/svg">
<g opacity="0.2">
<path d="M10.498 0C10.8106 0 11.1162 0.092696 11.3761 0.266366C11.636 0.440036 11.8386 0.68688 11.9582 0.975683C12.0778 1.26449 12.1091 1.58228 12.0482 1.88887C11.9872 2.19546 11.8366 2.47708 11.6156 2.69812C11.3946 2.91916 11.1129 3.06969 10.8064 3.13068C10.4998 3.19166 10.182 3.16036 9.89317 3.04073C9.60437 2.92111 9.35752 2.71853 9.18385 2.45861C9.01018 2.1987 8.91749 1.89312 8.91749 1.58052C8.91506 0.710019 9.62264 0.00243157 10.4931 0H10.498Z" fill="#3388DE"/>
<path d="M10.7164 3.33139C10.996 3.33139 11.2756 3.37273 11.5431 3.45297C11.903 3.56725 12.1996 3.82014 12.3698 4.15813L13.4641 6.15201C13.5127 6.22496 13.5613 6.27359 13.61 6.34654L15.7497 8.07296C15.9953 8.27964 16.0391 8.64195 15.847 8.89969C15.7327 9.03829 15.5649 9.11853 15.385 9.11853C15.2537 9.1161 15.1273 9.07233 15.0203 8.99695L12.7103 7.12464C12.6714 7.0906 12.6373 7.04926 12.613 7.00306C12.5887 6.97875 12.5887 6.95443 12.5644 6.93012L12.2726 6.39517V8.94832C12.275 9.18905 12.3164 9.42734 12.3942 9.65348L14.461 15.0516C14.6069 15.4406 14.4124 15.8759 14.0233 16.0242C13.9358 16.0509 13.8458 16.068 13.7558 16.0728C13.6039 16.0683 13.4566 16.02 13.3315 15.9338C13.2064 15.8475 13.1089 15.7269 13.0507 15.5865L10.9839 10.1641C10.956 10.0906 10.9059 10.0277 10.8405 9.98405C10.7751 9.94045 10.6977 9.91839 10.6191 9.92095C10.4076 9.91852 10.2325 10.0887 10.2301 10.3003V10.31L10.2057 12.1094C10.2009 12.192 10.1839 12.2747 10.1571 12.3525C10.1547 12.4474 10.1304 12.5373 10.0842 12.62L8.52796 15.6838C8.3845 15.9221 8.12675 16.0704 7.84712 16.0728C7.73041 16.0753 7.61369 16.0485 7.5067 15.9999C7.33026 15.9055 7.19813 15.7453 7.13896 15.5542C7.07979 15.363 7.09834 15.1562 7.1906 14.9786L8.72249 12.0121L8.77112 9.65348V9.2158C8.72249 9.262 8.66413 9.29604 8.60091 9.31306C8.53039 9.33981 8.45745 9.35683 8.38207 9.36169C8.14134 9.36169 7.9225 9.21823 7.82281 8.99695L6.92312 6.71128C6.82586 6.48028 6.89395 6.21037 7.09334 6.05475L8.96565 4.01223C9.3547 3.55023 10.0599 3.33139 10.7164 3.33139ZM8.74681 8.1459V6.10338C8.74681 6.05475 8.72249 6.05475 8.69817 6.05475C8.67386 6.05475 8.67386 6.05475 8.64954 6.07907L8.23617 6.54107C8.18511 6.59213 8.16566 6.66751 8.18754 6.73559L8.74681 8.1459ZM4.1025 3.11255C4.4151 3.11255 4.72068 3.20524 4.98059 3.37891C5.24051 3.55258 5.44309 3.79943 5.56271 4.08823C5.68234 4.37703 5.71364 4.69482 5.65265 5.00142C5.59167 5.30801 5.44114 5.58963 5.2201 5.81067C4.99906 6.03171 4.71744 6.18224 4.41085 6.24322C4.10425 6.30421 3.78646 6.27291 3.49766 6.15328C3.20886 6.03366 2.96201 5.83108 2.78834 5.57116C2.61467 5.31125 2.52198 5.00567 2.52198 4.69307C2.51955 3.82257 3.22713 3.11498 4.09764 3.11255H4.1025Z" fill="#3388DE"/>
<path d="M4.15141 6.46802C4.52587 6.47045 4.8979 6.5434 5.24561 6.68686C5.65898 6.85707 6.24256 7.90264 6.48572 8.26738C6.52948 8.3306 6.60243 8.36951 6.68024 8.36464H6.72887L8.13919 8.07286H8.26076C8.41679 8.06847 8.56819 8.12618 8.6817 8.23331C8.79522 8.34045 8.86159 8.48825 8.86623 8.64427C8.87352 8.93363 8.66927 9.18652 8.38234 9.24001L6.43708 9.62906H6.19393C6.04803 9.60475 5.91916 9.52694 5.82919 9.41022L5.51309 8.99685V11.1853C5.51309 11.2096 5.5374 11.2096 5.5374 11.2339L7.02066 15.2946C7.13251 15.5937 6.98176 15.9268 6.68267 16.0387C6.67538 16.0411 6.66565 16.046 6.65593 16.0484C6.59271 16.0679 6.52705 16.0776 6.4614 16.0727C6.21338 16.0727 5.98968 15.9171 5.90214 15.6837L4.66204 12.2552C4.63063 12.1705 4.57434 12.0973 4.50056 12.0452C4.42678 11.9931 4.33897 11.9646 4.24867 11.9634C4.00794 11.9609 3.81342 12.1555 3.81099 12.3962V13.1792C3.84017 13.3323 3.80612 13.4904 3.71372 13.6168L2.1332 15.8053C2.02378 15.9633 1.83898 16.0557 1.64689 16.0484C1.52774 16.0411 1.41102 16.0095 1.30647 15.9512C1.18139 15.8579 1.09664 15.7204 1.06952 15.5667C1.04241 15.4131 1.07497 15.2549 1.16057 15.1244L2.57088 13.1548C2.59763 13.1111 2.61465 13.06 2.61952 13.0089L2.5952 11.2825C2.59034 11.2315 2.60006 11.1828 2.61952 11.1366V8.85096C2.61952 8.71722 2.5101 8.6078 2.37636 8.6078C2.3253 8.61266 2.27423 8.62969 2.23046 8.65643L1.91436 8.89959C1.88518 8.92634 1.85843 8.96038 1.84141 8.99685L1.11194 10.626C1.01711 10.8351 0.807994 10.9689 0.576995 10.9664C0.440827 10.9664 0.311954 10.9129 0.212259 10.8205C0.109303 10.7386 0.0383216 10.6232 0.0116654 10.4944C-0.0149909 10.3655 0.00436462 10.2314 0.0663647 10.1154L0.868783 8.34033C0.893099 8.31601 0.893099 8.26738 0.917415 8.24307L0.990362 8.17012L1.01468 8.1458C1.01468 8.1458 2.69246 6.85707 2.76541 6.80844C3.19337 6.58473 3.66995 6.46802 4.15141 6.46802Z" fill="#3388DE"/>
</g>
<path d="M10.5267 3.24699C11.3572 3.24699 12.0305 2.5468 12.0305 1.68307C12.0305 0.819335 11.3572 0.119141 10.5267 0.119141C9.69621 0.119141 9.02295 0.819335 9.02295 1.68307C9.02295 2.5468 9.69621 3.24699 10.5267 3.24699Z" fill="#3388DE"/>
<path d="M15.7734 8.08342L13.6524 6.37792C13.5841 6.33163 13.5329 6.26341 13.5061 6.18301L12.3847 4.18514C12.2014 3.85851 11.9074 3.60796 11.5558 3.47858C10.7269 3.23494 9.53229 3.38113 8.94719 4.0146L7.06998 6.06119C6.87251 6.21956 6.80425 6.48513 6.89932 6.71902L7.80136 9.00926C7.85798 9.15335 7.96867 9.26966 8.10984 9.33337C8.25102 9.39709 8.41151 9.40318 8.55712 9.35036C8.6205 9.3333 8.67902 9.29919 8.72777 9.2529V9.69146L8.67901 12.0548L7.14312 15.0272C6.95783 15.4024 7.11142 15.858 7.48687 16.0408C7.84768 16.2186 8.28651 16.0846 8.48398 15.7338L10.0686 12.6395C10.1174 12.5591 10.1442 12.4665 10.1418 12.3715C10.171 12.2936 10.1881 12.2107 10.1905 12.1279L10.2149 10.3249C10.2125 10.113 10.3831 9.93753 10.5952 9.9351H10.605C10.7659 9.93023 10.9146 10.0277 10.9707 10.1787L13.0673 15.6363C13.1406 15.8207 13.2835 15.9688 13.4652 16.0488C13.6468 16.1288 13.8527 16.1342 14.0383 16.0638C14.2239 15.9934 14.3743 15.853 14.4572 15.6727C14.5401 15.4925 14.5487 15.2869 14.4813 15.1003L12.4091 9.66709C12.331 9.4405 12.2896 9.20173 12.2872 8.96053V6.42665L12.5797 6.96266C12.6041 6.98703 12.6041 7.01139 12.6285 7.03576C12.6528 7.06012 12.7016 7.10885 12.726 7.15758L15.042 9.03362C15.2931 9.23584 15.6613 9.19686 15.8636 8.94347L15.8709 8.93617C16.0757 8.67303 16.0318 8.29539 15.7734 8.08342ZM8.19143 6.57284L8.60588 6.10992C8.65464 6.06119 8.70339 6.08555 8.70339 6.15865V8.20524L8.14267 6.79211C8.14267 6.69466 8.14267 6.62157 8.19143 6.57284Z" fill="#3388DE"/>
<path d="M4.03033 6.25462C4.92728 6.25462 5.65441 5.58136 5.65441 4.75085C5.65441 3.92033 4.92728 3.24707 4.03033 3.24707C3.13337 3.24707 2.40625 3.92033 2.40625 4.75085C2.40625 5.58136 3.13337 6.25462 4.03033 6.25462Z" fill="#3388DE"/>
<path d="M8.94962 8.40285C8.89113 8.284 8.79243 8.18942 8.67082 8.13568C8.54921 8.08195 8.41246 8.07249 8.28453 8.10896L6.85582 8.40285C6.76222 8.41999 6.66615 8.38325 6.60949 8.30488C6.33853 7.93753 5.77197 6.85995 5.35321 6.71301C4.96341 6.55074 4.54195 6.4775 4.11989 6.49869C3.69783 6.51988 3.28593 6.63497 2.91455 6.83546C2.84066 6.83546 1.14098 8.15794 1.14098 8.15794L1.11635 8.18243L1.04245 8.2559C1.01535 8.28284 1.00058 8.31713 0.993186 8.35386L0.180299 10.1417C0.062061 10.3841 0.123643 10.6755 0.328097 10.8519C0.399157 10.9129 0.483771 10.9563 0.574985 10.9785C0.666198 11.0007 0.761406 11.001 0.852782 10.9795C0.944158 10.958 1.02909 10.9152 1.10061 10.8547C1.17212 10.7942 1.22817 10.7177 1.26415 10.6315L2.00314 8.99061C2.02038 8.95388 2.04747 8.91959 2.07703 8.89265L2.39726 8.64775C2.43393 8.62074 2.47741 8.60436 2.52287 8.60042C2.56833 8.59648 2.614 8.60514 2.65482 8.62543C2.69563 8.64572 2.73 8.67685 2.75411 8.71537C2.77821 8.7539 2.79112 8.7983 2.79139 8.84367V11.1458C2.79139 11.1947 2.76676 11.2437 2.76676 11.2927L2.79139 13.0315C2.78646 13.083 2.76922 13.1344 2.74212 13.1785L1.31341 15.1622C1.12374 15.4316 1.19025 15.8063 1.46121 15.9949C1.73217 16.1834 2.10906 16.1173 2.29873 15.8479L3.89987 13.6438C3.99348 13.5164 4.02796 13.3572 3.9984 13.203V12.4193C3.99594 12.1768 4.193 11.9809 4.43687 11.9784H4.4418C4.62901 11.9809 4.79651 12.0984 4.86056 12.2723L6.11684 15.7255C6.17467 15.8707 6.28524 15.989 6.42666 16.0571C6.56807 16.1251 6.73003 16.1378 6.88046 16.0928C7.02818 16.0375 7.1489 15.9278 7.21766 15.7866C7.28642 15.6453 7.29798 15.4831 7.24995 15.3336L5.67344 11.2437C5.67344 11.2192 5.64881 11.2192 5.64881 11.1947V8.99061L5.96904 9.40695C6.06018 9.5245 6.19073 9.60287 6.33853 9.62736H6.58486L8.5555 9.23552C8.62893 9.22282 8.6991 9.19579 8.76196 9.15597C8.82482 9.11616 8.87912 9.06435 8.92172 9.00355C8.96432 8.94275 8.99438 8.87416 9.01016 8.80174C9.02595 8.72932 9.02714 8.65451 9.01367 8.58163C9.00382 8.5204 8.98165 8.45917 8.94962 8.40285Z" fill="#3388DE"/>
</svg>
