<svg width="46" height="16" viewBox="0 0 46 16" fill="none" xmlns="http://www.w3.org/2000/svg">
<path d="M6.71472 15.4103L5.82331 11.7062L4.42244 8.77759C4.24002 8.39631 4.41937 7.9475 4.82295 7.77519C5.22646 7.60285 5.70162 7.77228 5.88394 8.15359L7.31812 11.1518C7.34024 11.1981 7.35741 11.2463 7.36935 11.2958L8.27869 15.0744C8.37686 15.4824 8.10639 15.8883 7.67449 15.9811C7.24098 16.0742 6.81253 15.8169 6.71472 15.4103Z" fill="#3388DE"/>
<path d="M2.14805 15.951C1.73366 15.8034 1.52444 15.3663 1.6807 14.9748L2.95868 11.7736L2.47995 8.89257C2.41125 8.47923 2.71027 8.09151 3.14779 8.02661C3.58494 7.96173 3.99573 8.24417 4.0644 8.65754L4.57601 11.7362C4.59754 11.8658 4.58312 11.9984 4.53413 12.1211L3.18136 15.5095C3.02464 15.9021 2.56132 16.0983 2.14805 15.951Z" fill="#3388DE"/>
<path d="M8.01547 7.77227C7.91124 7.79149 7.80079 7.78771 7.69207 7.75683L5.0329 7.00143C4.84234 6.9473 4.68671 6.81652 4.60756 6.64399L3.59247 4.43047C3.44415 4.10703 3.6014 3.73125 3.94379 3.59112C4.28621 3.45094 4.68387 3.59956 4.83222 3.92303L5.72253 5.86443L8.08113 6.53443C8.43843 6.63596 8.64096 6.99186 8.53353 7.32943C8.4588 7.56424 8.25369 7.72833 8.01547 7.77227Z" fill="#3388DE"/>
<path d="M7.69207 7.75683L5.0329 7.00143C4.84234 6.9473 4.68671 6.81652 4.60756 6.64399L3.59247 4.43046C3.44415 4.10703 3.6014 3.73125 3.94379 3.59112C4.28621 3.45094 4.68387 3.59956 4.83222 3.92303L5.72253 5.86443L8.08113 6.53443L7.69207 7.75683Z" fill="#3388DE"/>
<path d="M15.9067 8.7955L13.6376 7.01672C13.6072 6.99287 13.5791 6.96647 13.5535 6.93791L11.3343 4.45051C11.0968 4.18438 11.1327 3.78679 11.4144 3.56245C11.6961 3.3381 12.117 3.37198 12.3544 3.63813L14.5353 6.08253L16.7586 7.82544C17.0421 8.04772 17.0813 8.44503 16.8461 8.7129C16.6101 8.98162 16.1895 9.01718 15.9067 8.7955Z" fill="#3388DE"/>
<path d="M13.3229 3.366L11.5709 3.22368C11.0292 3.17971 10.5523 3.5589 10.5058 4.07068L10.0885 8.65626C10.0783 8.76826 10.0822 8.88101 10.1 8.99217L10.5545 11.8244L9.29191 14.9871C9.1375 15.3739 9.3442 15.8057 9.7536 15.9516C10.1612 16.0968 10.6194 15.9039 10.7745 15.5154L12.111 12.1678C12.1594 12.0465 12.1736 11.9155 12.1524 11.7875L11.7319 8.76405L13.818 8.94508L14.2197 4.36952C14.2645 3.85868 13.8634 3.4099 13.3229 3.366Z" fill="#3388DE"/>
<path d="M14.3049 15.4173L13.4243 11.7577L12.0402 8.86432C11.86 8.4876 12.0372 8.04423 12.4359 7.87398C12.8346 7.70373 13.304 7.87111 13.4842 8.24782L14.9011 11.2099C14.923 11.2557 14.9399 11.3033 14.9517 11.3523L15.8501 15.0854C15.9471 15.4885 15.6798 15.8896 15.2531 15.9812C14.8254 16.0731 14.4017 15.8194 14.3049 15.4173Z" fill="#3388DE"/>
<path d="M13.8177 8.94502L10.0913 8.62168L10.5054 4.07065C10.552 3.55887 11.0289 3.17969 11.5706 3.22369L13.3226 3.366C13.8631 3.40987 14.2642 3.85869 14.2193 4.36947L13.8177 8.94502Z" fill="#3388DE"/>
<path d="M12.8664 2.82478C13.6713 2.82478 14.3237 2.20839 14.3237 1.44804C14.3237 0.68768 13.6713 0.0712891 12.8664 0.0712891C12.0616 0.0712891 11.4092 0.68768 11.4092 1.44804C11.4092 2.20839 12.0616 2.82478 12.8664 2.82478Z" fill="#3388DE"/>
<path d="M6.2344 3.79412C6.15909 3.40515 5.82524 3.12402 5.4373 3.12402C4.93763 3.12402 4.58625 3.12402 4.03167 3.12402C3.64288 3.12402 3.31005 3.40437 3.23457 3.79412L1.99205 10.2094C1.94951 10.4291 2.11523 10.6314 2.33096 10.6314C3.38104 10.6314 6.0886 10.6314 7.13795 10.6314C7.35573 10.6314 7.51917 10.4279 7.47686 10.2094L6.2344 3.79412Z" fill="#3388DE"/>
<path d="M4.73419 2.63462C5.50427 2.63462 6.12854 2.04484 6.12854 1.31731C6.12854 0.589779 5.50427 0 4.73419 0C3.96412 0 3.33984 0.589779 3.33984 1.31731C3.33984 2.04484 3.96412 2.63462 4.73419 2.63462Z" fill="#3388DE"/>
<path d="M7.57548 7.70077C7.56688 7.63258 7.56992 7.56196 7.58633 7.49111L8.15599 5.02681C8.20376 4.82021 8.35773 4.65003 8.56629 4.57324L11.5988 3.45706C11.9427 3.33047 12.3301 3.49128 12.4641 3.81615C12.5983 4.14096 12.4279 4.50706 12.084 4.63362L9.38532 5.62693L8.8921 7.76055C8.81334 8.1012 8.45723 8.31705 8.09665 8.24264C7.81099 8.1837 7.60826 7.96033 7.57548 7.70077Z" fill="#3388DE"/>
<path d="M12.4638 3.8164C12.3298 3.49152 11.9424 3.33071 11.5985 3.4573L10.2974 3.93618L10.7748 5.11561L12.0836 4.63386C12.4276 4.5073 12.598 4.14127 12.4638 3.8164Z" fill="#3388DE"/>
<path d="M1.30565 9.58616C0.957165 9.56866 0.689712 9.28759 0.708224 8.95839L0.863019 6.20778C0.870566 6.07336 0.926042 5.94527 1.02036 5.84435L2.89501 3.83874C3.12596 3.59161 3.52526 3.56821 3.78684 3.7864C4.04842 4.00462 4.07319 4.38185 3.84225 4.62896L2.11328 6.47877L1.97019 9.02179C1.95162 9.35095 1.65404 9.60364 1.30565 9.58616Z" fill="#3388DE"/>
<path d="M24.7609 9.73169C23.1847 9.73169 21.9087 11.0086 21.9087 12.5848C21.9087 14.1609 23.1856 15.4378 24.7609 15.4378C26.3352 15.4378 27.613 14.1609 27.613 12.5848C27.613 11.0086 26.3352 9.73169 24.7609 9.73169ZM24.7609 13.4467C24.2871 13.4467 23.8989 13.0603 23.8989 12.5856C23.8989 12.111 24.2871 11.7246 24.7609 11.7246C25.2337 11.7246 25.6211 12.111 25.6211 12.5856C25.6211 13.0603 25.2346 13.4467 24.7609 13.4467Z" fill="#3388DE"/>
<path d="M18.4711 10.2475L18.9377 6.45235C19.0295 5.72394 19.6661 5.18966 20.4008 5.22973L21.423 5.28672L24.5967 2.42743C24.903 2.15227 25.2975 2.00089 25.7089 2.00089L32.1568 2C33.6038 2 35.0072 2.49421 36.1354 3.40071L39.7329 6.29117L44.5708 7.50043C45.1923 7.65537 45.6287 8.21459 45.6287 8.85484V10.2493C45.8335 10.2484 46 10.414 46 10.6189V12.463C46 12.7257 45.7872 12.9385 45.5245 12.9385H42.7934C42.805 12.8201 42.829 12.707 42.829 12.5859C42.829 10.6028 41.2226 8.9982 39.2404 8.9982C37.2583 8.9982 35.6527 10.6028 35.6527 12.5859C35.6527 12.7079 35.6777 12.821 35.6892 12.9385H28.1265C28.1372 12.8201 28.1612 12.707 28.1612 12.5859C28.1612 10.6028 26.5548 8.9982 24.5735 8.9982C22.5904 8.9982 20.9867 10.6028 20.9867 12.5859C20.9867 12.7079 21.0099 12.821 21.0223 12.9385H18.4747C18.212 12.9385 18.0001 12.7257 18.0001 12.463V10.7239C17.9956 10.4621 18.2084 10.2475 18.4711 10.2475ZM28.041 5.58414L37.0365 6.03917L35.3144 4.65449C34.3785 3.90204 33.2155 3.49243 32.0143 3.49243H28.041V5.58414ZM26.5468 5.50845V3.49332H25.9618C25.7587 3.49332 25.5637 3.56812 25.4132 3.70436L23.5771 5.35707L26.5468 5.50845Z" fill="#3388DE"/>
<path d="M39.4279 9.73169C37.8517 9.73169 36.5757 11.0086 36.5757 12.5848C36.5757 14.1609 37.8526 15.4378 39.4279 15.4378C41.0031 15.4378 42.28 14.1609 42.28 12.5848C42.28 11.0086 41.0031 9.73169 39.4279 9.73169ZM39.4279 13.4467C38.9532 13.4467 38.5668 13.0603 38.5668 12.5856C38.5668 12.111 38.9532 11.7246 39.4279 11.7246C39.9007 11.7246 40.2889 12.111 40.2889 12.5856C40.2889 13.0603 39.9016 13.4467 39.4279 13.4467Z" fill="#3388DE"/>
</svg>
